<svg width="128" height="103" viewBox="0 0 128 103" fill="none" xmlns="http://www.w3.org/2000/svg">
<path fill-rule="evenodd" clip-rule="evenodd" d="M12.8 0H115.2C122.269 0 128 5.73056 128 12.8V89.6C128 96.6694 122.269 102.4 115.2 102.4H12.8C5.73056 102.4 0 96.6694 0 89.6V12.8C0 5.73056 5.73056 0 12.8 0ZM58.688 71.808L83.584 55.168C84.9254 54.2938 85.7344 52.8013 85.7344 51.2C85.7344 49.5987 84.9254 48.1062 83.584 47.232L58.688 30.592C57.2179 29.5987 55.3203 29.497 53.7523 30.3277C52.185 31.1584 51.2032 32.7859 51.2 34.56V67.84C51.2032 69.6141 52.185 71.2416 53.7523 72.0723C55.3203 72.903 57.2179 72.8013 58.688 71.808Z" fill="#1D1E1C"/>
</svg>
