<svg width="42" height="30" viewBox="0 0 42 30" fill="none" xmlns="http://www.w3.org/2000/svg">
<path d="M39 0H3C2.20435 0 1.44129 0.31607 0.87868 0.87868C0.31607 1.44129 0 2.20435 0 3V27C0 27.7956 0.31607 28.5587 0.87868 29.1213C1.44129 29.6839 2.20435 30 3 30H39C39.7957 30 40.5587 29.6839 41.1213 29.1213C41.6839 28.5587 42 27.7956 42 27V3C42 2.20435 41.6839 1.44129 41.1213 0.87868C40.5587 0.31607 39.7957 0 39 0ZM22.5 24H19.5C19.1022 24 18.7206 23.842 18.4393 23.5607C18.158 23.2794 18 22.8978 18 22.5C18 22.1022 18.158 21.7206 18.4393 21.4393C18.7206 21.158 19.1022 21 19.5 21H22.5C22.8978 21 23.2794 21.158 23.5607 21.4393C23.842 21.7206 24 22.1022 24 22.5C24 22.8978 23.842 23.2794 23.5607 23.5607C23.2794 23.842 22.8978 24 22.5 24ZM34.5 24H28.5C28.1022 24 27.7206 23.842 27.4393 23.5607C27.158 23.2794 27 22.8978 27 22.5C27 22.1022 27.158 21.7206 27.4393 21.4393C27.7206 21.158 28.1022 21 28.5 21H34.5C34.8978 21 35.2794 21.158 35.5607 21.4393C35.842 21.7206 36 22.1022 36 22.5C36 22.8978 35.842 23.2794 35.5607 23.5607C35.2794 23.842 34.8978 24 34.5 24ZM3 7.5V3H39V7.5H3Z" fill="#1D1E1C"/>
</svg>
