<svg width="48" height="28" viewBox="0 0 48 28" fill="none" xmlns="http://www.w3.org/2000/svg">
<path d="M26.3334 4.9998C26.3334 4.60197 26.4914 4.22044 26.7727 3.93914C27.054 3.65783 27.4356 3.4998 27.8334 3.4998H45.8334C46.2312 3.4998 46.6128 3.65783 46.8941 3.93914C47.1754 4.22044 47.3334 4.60197 47.3334 4.9998C47.3334 5.39762 47.1754 5.77915 46.8941 6.06046C46.6128 6.34176 46.2312 6.4998 45.8334 6.4998H27.8334C27.4356 6.4998 27.054 6.34176 26.7727 6.06046C26.4914 5.77915 26.3334 5.39762 26.3334 4.9998ZM45.8334 12.4998H27.8334C27.4356 12.4998 27.054 12.6578 26.7727 12.9391C26.4914 13.2204 26.3334 13.602 26.3334 13.9998C26.3334 14.3976 26.4914 14.7792 26.7727 15.0605C27.054 15.3418 27.4356 15.4998 27.8334 15.4998H45.8334C46.2312 15.4998 46.6128 15.3418 46.8941 15.0605C47.1754 14.7792 47.3334 14.3976 47.3334 13.9998C47.3334 13.602 47.1754 13.2204 46.8941 12.9391C46.6128 12.6578 46.2312 12.4998 45.8334 12.4998ZM45.8334 21.4998H32.3334C31.9356 21.4998 31.554 21.6578 31.2727 21.9391C30.9914 22.2204 30.8334 22.602 30.8334 22.9998C30.8334 23.3976 30.9914 23.7792 31.2727 24.0605C31.554 24.3418 31.9356 24.4998 32.3334 24.4998H45.8334C46.2312 24.4998 46.6128 24.3418 46.8941 24.0605C47.1754 23.7792 47.3334 23.3976 47.3334 22.9998C47.3334 22.602 47.1754 22.2204 46.8941 21.9391C46.6128 21.6578 46.2312 21.4998 45.8334 21.4998ZM19.8253 16.6248C21.314 15.4782 22.4064 13.8943 22.9494 12.0954C23.4924 10.2965 23.4588 8.37271 22.8531 6.5939C22.2475 4.81508 21.1003 3.27045 19.5724 2.17662C18.0444 1.08279 16.2125 0.494629 14.3334 0.494629C12.4543 0.494629 10.6223 1.08279 9.09444 2.17662C7.56653 3.27045 6.41931 4.81508 5.81367 6.5939C5.20803 8.37271 5.17436 10.2965 5.71737 12.0954C6.26038 13.8943 7.35283 15.4782 8.84152 16.6248C4.97527 18.2617 1.9284 21.556 0.880273 25.6248C0.823025 25.8465 0.817301 26.0784 0.863538 26.3027C0.909775 26.5269 1.00675 26.7377 1.14702 26.9187C1.28729 27.0997 1.46714 27.2461 1.67279 27.3469C1.87843 27.4476 2.10441 27.4999 2.3334 27.4998H26.3334C26.5624 27.4999 26.7884 27.4476 26.994 27.3469C27.1997 27.2461 27.3795 27.0997 27.5198 26.9187C27.66 26.7377 27.757 26.5269 27.8033 26.3027C27.8495 26.0784 27.8438 25.8465 27.7865 25.6248C26.7384 21.5542 23.6915 18.2598 19.8253 16.6248Z" fill="#1D1E1C"/>
</svg>
